<?xml version="1.0" standalone="no"?><!DOCTYPE svg PUBLIC "-//W3C//DTD SVG 1.1//EN" "http://www.w3.org/Graphics/SVG/1.1/DTD/svg11.dtd"><svg t="1565834466203" class="icon" viewBox="0 0 1024 1024" version="1.1" xmlns="http://www.w3.org/2000/svg" p-id="10278" width="32" height="32" xmlns:xlink="http://www.w3.org/1999/xlink"><defs><style type="text/css"></style></defs><path d="M813.795556 853.333333H210.204444a65.991111 65.991111 0 0 1-64.853333-66.986666V281.315556a65.991111 65.991111 0 0 1 64.853333-66.986667h53.333334a28.444444 28.444444 0 0 1 0 56.888889h-53.333334a9.386667 9.386667 0 0 0-7.964444 10.097778v505.6a9.386667 9.386667 0 0 0 7.964444 10.097777h603.591112a9.386667 9.386667 0 0 0 7.964444-10.097777V281.315556a9.386667 9.386667 0 0 0-7.964444-10.097778h-52.48a28.444444 28.444444 0 0 1 0-56.888889h52.48a65.991111 65.991111 0 0 1 64.853333 66.986667v505.6A65.991111 65.991111 0 0 1 813.795556 853.333333z" fill="#bfbfbf" p-id="10279"></path><path d="M339.768889 316.728889a28.444444 28.444444 0 0 1-28.444445-28.444445V170.666667a28.444444 28.444444 0 0 1 56.888889 0v118.186666a28.444444 28.444444 0 0 1-28.444444 27.875556zM684.231111 316.728889a28.444444 28.444444 0 0 1-28.444444-28.444445V170.666667a28.444444 28.444444 0 0 1 56.888889 0v118.186666a28.444444 28.444444 0 0 1-28.444445 27.875556zM589.795556 271.217778H434.204444a28.444444 28.444444 0 0 1 0-56.888889h155.591112a28.444444 28.444444 0 0 1 0 56.888889zM850.204444 421.262222H173.795556a28.444444 28.444444 0 0 1 0-56.888889h676.408888a28.444444 28.444444 0 0 1 0 56.888889zM363.804444 520.96H331.377778a28.444444 28.444444 0 0 1 0-56.888889h32.426666a28.444444 28.444444 0 0 1 0 56.888889zM537.315556 520.96H504.888889a28.444444 28.444444 0 0 1 0-56.888889h32.426667a28.444444 28.444444 0 0 1 0 56.888889zM711.111111 520.96h-32.711111a28.444444 28.444444 0 0 1 0-56.888889H711.111111a28.444444 28.444444 0 0 1 0 56.888889zM363.804444 633.173333H331.377778a28.444444 28.444444 0 0 1 0-56.888889h32.426666a28.444444 28.444444 0 0 1 0 56.888889zM537.315556 633.173333H504.888889a28.444444 28.444444 0 0 1 0-56.888889h32.426667a28.444444 28.444444 0 0 1 0 56.888889zM711.111111 633.173333h-32.711111a28.444444 28.444444 0 0 1 0-56.888889H711.111111a28.444444 28.444444 0 0 1 0 56.888889zM363.804444 745.244444H331.377778a28.444444 28.444444 0 0 1 0-56.888888h32.426666a28.444444 28.444444 0 0 1 0 56.888888zM537.315556 745.244444H504.888889a28.444444 28.444444 0 0 1 0-56.888888h32.426667a28.444444 28.444444 0 0 1 0 56.888888zM711.111111 745.244444h-32.711111a28.444444 28.444444 0 0 1 0-56.888888H711.111111a28.444444 28.444444 0 0 1 0 56.888888z" fill="#bfbfbf" p-id="10280"></path></svg>