<?xml version="1.0" standalone="no"?><!DOCTYPE svg PUBLIC "-//W3C//DTD SVG 1.1//EN" "http://www.w3.org/Graphics/SVG/1.1/DTD/svg11.dtd"><svg t="1569391249052" class="icon" viewBox="0 0 1024 1024" version="1.1" xmlns="http://www.w3.org/2000/svg" p-id="10675" width="32" height="32" xmlns:xlink="http://www.w3.org/1999/xlink"><defs><style type="text/css"></style></defs><path d="M905.846154 846.769231H350.601846c-28.238769 0-55.138462-12.169846-73.846154-33.319385l-225.870769-256a98.658462 98.658462 0 0 1 0-130.323692l225.870769-256A98.737231 98.737231 0 0 1 350.601846 137.846154H905.846154c54.311385 0 98.461538 44.189538 98.461538 98.461538v512c0 54.311385-44.150154 98.461538-98.461538 98.461539zM350.601846 177.230769a59.076923 59.076923 0 0 0-44.307692 20.007385l-225.870769 256a59.076923 59.076923 0 0 0 0 78.139077l225.870769 256a59.076923 59.076923 0 0 0 44.307692 20.007384H905.846154c32.571077 0 59.076923-26.505846 59.076923-59.076923V236.307692c0-32.571077-26.505846-59.076923-59.076923-59.076923H350.601846z" fill="#8a8a8a" p-id="10676"></path><path d="M499.081846 353.043692l250.643692 250.643693a19.692308 19.692308 0 0 1-27.844923 27.844923l-250.683077-250.604308a19.692308 19.692308 0 0 1 27.844924-27.844923z" fill="#8a8a8a" p-id="10677"></path><path d="M471.197538 603.687385l250.643693-250.643693a19.692308 19.692308 0 0 1 27.844923 27.844923l-250.604308 250.683077a19.692308 19.692308 0 0 1-27.844923-27.844923z" fill="#8a8a8a" p-id="10678"></path></svg>