<?xml version="1.0" standalone="no"?><!DOCTYPE svg PUBLIC "-//W3C//DTD SVG 1.1//EN" "http://www.w3.org/Graphics/SVG/1.1/DTD/svg11.dtd"><svg t="1569312830200" class="icon" viewBox="0 0 1024 1024" version="1.1" xmlns="http://www.w3.org/2000/svg" p-id="9153" width="32" height="32" xmlns:xlink="http://www.w3.org/1999/xlink"><defs><style type="text/css"></style></defs><path d="M850.784 157.024C756.608 73.664 643.648 32 512 32 378.656 32 265.344 78.656 172 172S32 378.656 32 512s46.656 246.656 140 340S378.656 992 512 992c23.328 0 42.496-7.488 57.504-22.496s22.496-34.176 22.496-57.504c0-20.032-6.656-38.336-20-55.008-13.344-16.64-20-34.112-20-52.48 0-21.696 7.488-40.448 22.496-56.256 15.008-15.84 34.176-23.744 57.504-23.744h92.48c73.344 0 136.256-25.856 188.736-77.504C965.76 595.36 992 532.864 992 459.52c0.032-118.336-47.04-219.168-141.216-302.496zM275.776 489.504A79.04 79.04 0 0 1 219.52 512a79.072 79.072 0 0 1-56.256-22.496c-15.872-15.008-23.776-34.176-23.744-57.504 0.032-23.328 7.968-42.496 23.744-57.504A78.816 78.816 0 0 1 219.52 352c21.728 0 40.48 7.488 56.256 22.496 15.808 15.008 23.712 34.176 23.744 57.504s-7.872 42.496-23.744 57.504z m160-213.728c-15.84 15.84-34.592 23.744-56.256 23.744-21.632 0-40.416-7.904-56.256-23.744-15.872-15.808-23.776-34.56-23.744-56.256 0.032-21.696 7.968-40.448 23.744-56.256s34.56-23.744 56.256-23.744c21.728 0 40.48 7.936 56.256 23.744 15.808 15.84 23.712 34.592 23.744 56.256 0.032 21.696-7.872 40.448-23.744 56.256z m264.96 0c-15.872 15.84-34.624 23.744-56.256 23.744s-40.416-7.904-56.256-23.744c-15.872-15.808-23.776-34.56-23.744-56.256 0.032-21.696 7.968-40.448 23.744-56.256s34.528-23.744 56.256-23.744c21.76 0 40.512 7.936 56.288 23.744 15.776 15.84 23.68 34.592 23.712 56.256 0.064 21.696-7.872 40.448-23.744 56.256z m160 213.728c-15.84 15.008-34.624 22.496-56.256 22.496s-40.416-7.488-56.256-22.496c-15.872-15.008-23.776-34.176-23.744-57.504 0.064-23.328 7.968-42.496 23.744-57.504A78.816 78.816 0 0 1 804.48 352c21.76 0 40.512 7.488 56.288 22.496 15.776 15.008 23.68 34.176 23.712 57.504 0.064 23.328-7.872 42.496-23.744 57.504z" fill="#E2B17E" p-id="9154"></path><path d="M804.48 352c-21.728 0-40.48 7.488-56.256 22.496-15.776 15.008-23.68 34.176-23.744 57.504-0.032 23.328 7.872 42.496 23.744 57.504 15.84 15.008 34.592 22.496 56.256 22.496s40.448-7.488 56.288-22.496c15.84-15.008 23.776-34.176 23.712-57.504-0.032-23.328-7.936-42.496-23.712-57.504A78.944 78.944 0 0 0 804.48 352z" fill="#FFFFFF" p-id="9155"></path><path d="M700.736 163.264c-15.776-15.84-34.528-23.744-56.256-23.744s-40.48 7.936-56.256 23.744c-15.776 15.84-23.712 34.592-23.744 56.256-0.032 21.696 7.872 40.448 23.744 56.256 15.84 15.84 34.592 23.744 56.256 23.744s40.416-7.904 56.288-23.744c15.84-15.808 23.776-34.56 23.712-56.256-0.032-21.696-7.936-40.448-23.744-56.256z" fill="#0080FF" p-id="9156"></path><path d="M379.52 139.52c-21.728 0-40.48 7.936-56.256 23.744-15.808 15.808-23.712 34.56-23.744 56.256-0.032 21.696 7.872 40.448 23.744 56.256 15.872 15.84 34.624 23.744 56.256 23.744 21.664 0 40.416-7.904 56.256-23.744 15.872-15.808 23.776-34.56 23.744-56.256-0.032-21.696-7.936-40.448-23.744-56.256-15.776-15.84-34.528-23.744-56.256-23.744z" fill="#FFDF00" p-id="9157"></path><path d="M219.52 352c-21.728 0-40.48 7.488-56.256 22.496-15.776 15.008-23.68 34.176-23.744 57.504-0.032 23.328 7.872 42.496 23.744 57.504A79.072 79.072 0 0 0 219.52 512a79.04 79.04 0 0 0 56.256-22.496c15.872-15.008 23.776-34.176 23.744-57.504s-7.936-42.496-23.744-57.504A78.816 78.816 0 0 0 219.52 352z" fill="#FF0000" p-id="9158"></path></svg>